PathFileType	4	(X/Y/Z)	/Users/itak/Documents/Research/Walk-IL/dataset/trc/00156_00007.trc
DataRate	CameraRate	NumFrames	NumMarkers	Units	OrigDataRate	OrigDataStartFrame	OrigNumFrames
100.000000	100.000000	4	53	mm	100.000000	186	498
Frame#	Time	RPSI			LPSI			L3			STRN			T10			C7			CLAV			RBAK			LBAK			LSHO			LUPA			LAEL			LAOL			LWTS			LWPS			LFRA			LHPS			LHTS			RSHO			RUPA			RAEL			RAOL			RWTS			RWPS			RFRA			RIFD			RHTS			RHPS			RBHD			LFHD			RFHD			LBHD			LHIP			RHIP			RASI			LASI			LKNE			LTHI			LANK			LTIP			LTOE			LMT1			LMT5			LHEE			RKNE			RTHI			RANK			RTIP			RTOE			RMT1			RMT5			RHEE			LIFD			
		X1	Y1	Z1	X2	Y2	Z2	X3	Y3	Z3	X4	Y4	Z4	X5	Y5	Z5	X6	Y6	Z6	X7	Y7	Z7	X8	Y8	Z8	X9	Y9	Z9	X10	Y10	Z10	X11	Y11	Z11	X12	Y12	Z12	X13	Y13	Z13	X14	Y14	Z14	X15	Y15	Z15	X16	Y16	Z16	X17	Y17	Z17	X18	Y18	Z18	X19	Y19	Z19	X20	Y20	Z20	X21	Y21	Z21	X22	Y22	Z22	X23	Y23	Z23	X24	Y24	Z24	X25	Y25	Z25	X26	Y26	Z26	X27	Y27	Z27	X28	Y28	Z28	X29	Y29	Z29	X30	Y30	Z30	X31	Y31	Z31	X32	Y32	Z32	X33	Y33	Z33	X34	Y34	Z34	X35	Y35	Z35	X36	Y36	Z36	X37	Y37	Z37	X38	Y38	Z38	X39	Y39	Z39	X40	Y40	Z40	X41	Y41	Z41	X42	Y42	Z42	X43	Y43	Z43	X44	Y44	Z44	X45	Y45	Z45	X46	Y46	Z46	X47	Y47	Z47	X48	Y48	Z48	X49	Y49	Z49	X50	Y50	Z50	X51	Y51	Z51	X52	Y52	Z52	X53	Y53	Z53	

187	1.86	-726.9970092773438	1114.128051757812	-513.3699951171875	-692.114990234375	1116.523681640625	-644.5744018554688	-716.6860961914062	1154.387084960938	-582.0479736328125	-494.4996948242188	1347.01220703125	-517.9168701171875	-737.8555297851562	1308.479736328125	-583.3927612304688	-686.5841674804688	1599.672729492188	-584.7765502929688	-520.7747192382812	1483.295776367188	-531.1072998046875	-770.0509033203125	1418.634765625	-513.6956787109375	-668.6600952148438	1580.24072265625	-685.2110595703125	-569.38525390625	1560.852172851562	-729.0326538085938	-574.7139282226562	1430.455444335938	-803.7702026367188	-555.896484375	1213.577758789062	-828.1901245117188	-631.6127319335938	1196.297241210938	-787.5263671875	-436.6716613769531	972.5848388671875	-761.9431762695312	-505.8904724121094	934.5477905273438	-802.9564819335938	-527.373291015625	1099.668701171875	-828.2542724609375	-465.0826721191406	865.4722900390625	-795.5254516601562	-405.55810546875	888.780029296875	-767.5020141601562	-680.7086181640625	1580.1826171875	-395.7144165039062	-713.259033203125	1507.327270507812	-336.8865356445312	-720.7093505859375	1211.988403320312	-304.1453552246094	-705.6168212890625	1206.8427734375	-400.7264709472656	-541.987060546875	996.8585205078125	-271.452880859375	-616.4943237304688	966.9021606445312	-255.4425659179688	-691.4166870117188	1142.130004882812	-279.8210754394531	-477.7508850097656	811.7158813476562	-269.8843688964844	-495.4834899902344	897.2885131835938	-252.4417114257812	-563.3483276367188	876.1505737304688	-237.6311950683594	-656.5745239257812	1768.455688476562	-498.1871948242188	-446.521728515625	1816.602172851562	-534.451904296875	-505.0251770019531	1809.050537109375	-418.8030090332031	-603.8392333984375	1781.468994140625	-621.775146484375	-569.312255859375	1031.152587890625	-722.4564819335938	-638.0331420898438	1015.243713378906	-364.8717956542969	-547.5419311523438	1088.854125976562	-391.2598266601562	-483.25927734375	1094.863891601562	-648.52734375	-366.2285766601562	564.0536499023438	-657.9537963867188	-436.4185180664062	697.7423706054688	-703.1539916992188	-543.1641845703125	74.89467620849609	-766.6307983398438	-487.3300476074219	331.3614501953125	-745.1692504882812	-333.2448120117188	63.55342864990234	-681.1802978515625	-411.5529174804688	58.56326675415039	-657.5922241210938	-421.4779663085938	57.77433776855469	-772.56884765625	-620.0575561523438	79.92325592041016	-715.8067626953125	-627.0623168945312	524.7076416015625	-457.2478942871094	-615.3532104492188	798.6868286132812	-388.285888671875	-740.2373657226562	27.31186676025391	-555.1111450195312	-655.0138549804688	391.0166320800781	-467.7093200683594	-502.9827575683594	40.93859481811523	-581.5382080078125	-559.651611328125	34.26974487304688	-628.8702392578125	-610.0308837890625	37.09341430664062	-518.1998901367188	-791.6444091796875	30.93880081176758	-608.9188842773438	-395.1064453125	785.5556640625	-734.5518798828125	
188	1.87	-719.6132202148438	1113.520629882812	-513.2987670898438	-683.1870727539062	1116.095458984375	-644.078369140625	-708.604248046875	1153.825439453125	-581.7662963867188	-487.4126586914062	1346.612426757812	-515.0739135742188	-730.0140991210938	1307.795288085938	-583.00439453125	-679.1254272460938	1599.094604492188	-583.9193725585938	-513.6500244140625	1482.855102539062	-528.6416625976562	-763.0650024414062	1417.9775390625	-513.5918579101562	-660.2147216796875	1579.687744140625	-684.1275634765625	-560.5745849609375	1560.333129882812	-727.0569458007812	-565.1820678710938	1429.994750976562	-801.876953125	-546.165771484375	1213.186889648438	-826.4602661132812	-622.223876953125	1195.874389648438	-786.2345581054688	-427.8302917480469	971.7073974609375	-760.1893920898438	-496.9261779785156	933.9611206054688	-801.6083984375	-517.8765869140625	1099.20947265625	-826.6561279296875	-456.3378601074219	864.76611328125	-794.1321411132812	-396.7843933105469	887.9449462890625	-765.8462524414062	-674.8987426757812	1579.685180664062	-394.7666320800781	-707.7117309570312	1506.73388671875	-336.1703491210938	-713.612548828125	1211.344116210938	-302.8086853027344	-698.1271362304688	1206.118286132812	-399.3636779785156	-533.1430053710938	997.8276977539062	-269.1057739257812	-607.4255981445312	967.2435913085938	-253.1738891601562	-683.8397216796875	1141.723022460938	-278.2542724609375	-467.2149353027344	813.2734985351562	-266.8653564453125	-485.8037719726562	898.7343139648438	-249.7263031005859	-553.4869995117188	877.0018310546875	-235.0256958007812	-649.3776245117188	1768.164916992188	-496.9887084960938	-438.9595336914062	1815.728515625	-531.9877319335938	-498.1976318359375	1808.422973632812	-416.7000427246094	-595.8248901367188	1780.926635742188	-620.2488403320312	-559.4407348632812	1031.147094726562	-720.832275390625	-632.4100341796875	1014.510803222656	-363.8177490234375	-541.6586303710938	1088.20361328125	-388.96826171875	-474.4565734863281	1094.686889648438	-645.5928955078125	-354.966796875	565.5231323242188	-654.318115234375	-425.6804504394531	698.3538818359375	-700.453369140625	-509.5013732910156	68.69210815429688	-759.935791015625	-465.328125	327.79345703125	-741.0252685546875	-300.6732482910156	65.61924743652344	-671.023681640625	-379.1128234863281	58.21743392944336	-648.6068725585938	-387.1483459472656	55.90303039550781	-763.8006591796875	-587.4031372070312	71.62273406982422	-710.4131469726562	-623.107177734375	524.0662841796875	-456.7646179199219	-610.4447631835938	797.9385986328125	-387.3531799316406	-740.1898193359375	27.66795921325684	-555.528076171875	-651.8989868164062	390.4986267089844	-467.54736328125	-502.6882934570312	40.99983596801758	-581.115966796875	-559.1502685546875	34.296142578125	-628.4459228515625	-610.0379028320312	37.0950813293457	-518.1046752929688	-791.398193359375	31.30671501159668	-609.4708251953125	-386.8565979003906	784.5206298828125	-732.9347534179688	
189	1.88	-712.1661376953125	1112.8291015625	-513.16650390625	-674.2472534179688	1115.55712890625	-643.52294921875	-700.4063720703125	1153.159545898438	-581.4142456054688	-480.2707824707031	1346.112182617188	-512.240234375	-722.1633911132812	1307.032836914062	-582.6703491210938	-671.6114501953125	1598.434448242188	-583.071044921875	-506.4583740234375	1482.317993164062	-526.1593017578125	-755.993408203125	1417.21630859375	-513.5089721679688	-651.674072265625	1579.051879882812	-683.0322875976562	-551.6708374023438	1559.72607421875	-725.05322265625	-555.5694580078125	1429.454956054688	-799.9577026367188	-536.4321899414062	1212.704956054688	-824.7252807617188	-612.8587036132812	1195.394775390625	-784.9480590820312	-419.1181945800781	970.6531982421875	-758.4541625976562	-488.0913391113281	933.2584228515625	-800.3018798828125	-508.4369812011719	1098.651123046875	-825.071533203125	-447.786376953125	863.9129638671875	-792.777587890625	-388.1457824707031	886.9737548828125	-764.2559814453125	-669.0285034179688	1579.083862304688	-393.8301086425781	-702.1160278320312	1506.03955078125	-335.4767761230469	-706.5317993164062	1210.610961914062	-301.5504455566406	-690.5880737304688	1205.320068359375	-398.0654907226562	-524.4859619140625	998.5912475585938	-266.7962646484375	-598.5693969726562	967.4442749023438	-250.9807281494141	-676.3187255859375	1141.216430664062	-276.7587280273438	-457.0228881835938	814.5847778320312	-263.8922729492188	-476.3826599121094	899.9457397460938	-247.0434265136719	-543.9200439453125	877.6658935546875	-232.4875793457031	-642.1034545898438	1767.792358398438	-495.7756958007812	-431.3274536132812	1814.735107421875	-529.5113525390625	-491.2911071777344	1807.687255859375	-414.5799865722656	-587.7277221679688	1780.287109375	-618.6996459960938	-549.5646362304688	1031.016723632812	-719.2015991210938	-626.7074584960938	1013.712524414062	-362.7478942871094	-535.66357421875	1087.472534179688	-386.7090454101562	-465.6060791015625	1094.385498046875	-642.6654052734375	-344.1506042480469	566.6978759765625	-650.9360961914062	-415.3310852050781	698.68896484375	-697.90234375	-476.0287475585938	63.15765380859375	-752.57861328125	-443.44921875	324.3440856933594	-736.6834106445312	-268.756591796875	67.69487762451172	-659.9408569335938	-347.3507385253906	58.16579437255859	-638.833740234375	-353.21533203125	54.39215469360352	-754.1912841796875	-554.891845703125	64.16043090820312	-704.4671630859375	-618.9739379882812	523.3679809570312	-456.2940368652344	-605.3416137695312	797.14453125	-386.4736938476562	-740.1293334960938	28.03711318969727	-555.9874877929688	-648.6652221679688	389.9137268066406	-467.4151000976562	-502.3441772460938	41.0579948425293	-580.6586303710938	-558.6937255859375	34.28044128417969	-628.06982421875	-610.0360107421875	37.10392761230469	-518.027587890625	-791.1398315429688	31.71101379394531	-610.0863647460938	-378.9622497558594	783.213134765625	-731.3641967773438	
190	1.89	-704.6434936523438	1112.047973632812	-512.9708862304688	-665.2801513671875	1114.90576171875	-642.9050903320312	-692.0975341796875	1152.382446289062	-580.9923095703125	-473.0696716308594	1345.500732421875	-509.4146423339844	-714.2783813476562	1306.18701171875	-582.3703002929688	-664.034423828125	1597.685791015625	-582.22607421875	-499.1940307617188	1481.677612304688	-523.6654663085938	-748.830810546875	1416.351196289062	-513.4304809570312	-643.0358276367188	1578.321411132812	-681.921142578125	-542.6766357421875	1559.025268554688	-723.0238647460938	-545.8782958984375	1428.826538085938	-798.013671875	-526.695556640625	1212.12451171875	-822.9900512695312	-603.5106201171875	1194.847045898438	-783.67724609375	-410.5182495117188	969.4290771484375	-756.7371215820312	-479.3612670898438	932.4412231445312	-799.0427856445312	-499.0390930175781	1097.990966796875	-823.5040283203125	-439.4126892089844	862.911865234375	-791.4625854492188	-379.6258239746094	885.8713989257812	-762.72705078125	-663.0706787109375	1578.375244140625	-392.8953857421875	-696.4541625976562	1505.244995117188	-334.79931640625	-699.47900390625	1209.787841796875	-300.3712463378906	-683.0067138671875	1204.446533203125	-396.8309631347656	-516.0191650390625	999.1436767578125	-264.5201721191406	-589.9313354492188	967.4947509765625	-248.8646240234375	-668.8660278320312	1140.60595703125	-275.3331298828125	-447.1802673339844	815.6420288085938	-260.9684753417969	-467.2254638671875	900.9139404296875	-244.3861846923828	-534.6510620117188	878.13525390625	-230.0139923095703	-634.7522583007812	1767.327880859375	-494.5519104003906	-423.6302185058594	1813.624755859375	-527.02685546875	-484.31103515625	1806.843383789062	-412.4436645507812	-579.5517578125	1779.543579101562	-617.1328125	-539.6741333007812	1030.753051757812	-717.5386962890625	-620.8987426757812	1012.845336914062	-361.652099609375	-529.5581665039062	1086.658569335938	-384.4761657714844	-456.699462890625	1093.958984375	-639.7396240234375	-333.7508239746094	567.5789794921875	-647.8053588867188	-405.3234558105469	698.7546997070312	-695.5067749023438	-442.8697814941406	58.32357406616211	-744.5619506835938	-421.7281494140625	321.0494384765625	-732.1466674804688	-237.5703125	69.79434967041016	-647.9334716796875	-316.3605346679688	58.44648361206055	-628.2802124023438	-319.7868957519531	53.24053955078125	-743.7273559570312	-522.65625	57.57760238647461	-697.979248046875	-614.6749877929688	522.60693359375	-455.8329467773438	-600.0357666015625	796.2957763671875	-385.6327819824219	-740.0554809570312	28.42309761047363	-556.496826171875	-645.32373046875	389.2664489746094	-467.3152160644531	-501.9580993652344	41.0965690612793	-580.1983642578125	-558.3215942382812	34.21186828613281	-627.7891845703125	-610.0198974609375	37.12009811401367	-517.9806518554688	-790.8793334960938	32.16390609741211	-610.773681640625	-371.3960876464844	781.6430053710938	-729.839111328125	
